<svg width="34" height="33" viewBox="0 0 34 33" fill="none" xmlns="http://www.w3.org/2000/svg">
<circle cx="8.46306" cy="13.6908" r="2.62932" fill="#0FC4BF"/>
<circle cx="25.5536" cy="13.6908" r="2.62932" fill="#0273AF"/>
<path d="M5.17639 19.8542C5.17639 18.629 6.16964 17.6357 7.39488 17.6357H9.5312C10.7564 17.6357 11.7497 18.629 11.7497 19.8542V26.181H5.17639V19.8542Z" fill="#0FC4BF"/>
<path d="M22.267 19.8542C22.267 18.629 23.2602 17.6357 24.4855 17.6357H26.6218C27.847 17.6357 28.8403 18.629 28.8403 19.8542V26.181H22.267V19.8542Z" fill="#0273AF"/>
<path d="M17.0082 7.11848C16.4741 7.11848 15.9452 7.22368 15.4518 7.42808C14.9583 7.63247 14.5099 7.93206 14.1322 8.30974C13.7546 8.68742 13.455 9.13578 13.2506 9.62924C13.0462 10.1227 12.941 10.6516 12.941 11.1857C12.941 11.7198 13.0462 12.2487 13.2506 12.7422C13.455 13.2356 13.7546 13.684 14.1322 14.0617C14.5099 14.4393 14.9583 14.7389 15.4518 14.9433C15.9452 15.1477 16.4741 15.2529 17.0082 15.2529L17.0082 11.1857L17.0082 7.11848Z" fill="#692ACE"/>
<path d="M17.0083 7.11848C17.5424 7.11848 18.0713 7.22368 18.5647 7.42808C19.0582 7.63247 19.5066 7.93206 19.8842 8.30974C20.2619 8.68742 20.5615 9.13578 20.7659 9.62924C20.9703 10.1227 21.0755 10.6516 21.0755 11.1857C21.0755 11.7198 20.9703 12.2487 20.7659 12.7422C20.5615 13.2356 20.2619 13.684 19.8842 14.0617C19.5066 14.4393 19.0582 14.7389 18.5647 14.9433C18.0713 15.1477 17.5424 15.2529 17.0083 15.2529L17.0083 11.1857L17.0083 7.11848Z" fill="#351568"/>
<path d="M12.5713 18.9499C12.5713 17.7247 13.5645 16.7314 14.7898 16.7314H17.0083V27.8239H12.5713V18.9499Z" fill="#692ACE"/>
<path d="M21.4452 18.9499C21.4452 17.7247 20.4519 16.7314 19.2267 16.7314H17.0082V27.8239H21.4452V18.9499Z" fill="#351568"/>
</svg>
