<svg width="33" height="33" viewBox="0 0 33 33" fill="none" xmlns="http://www.w3.org/2000/svg">
<g clip-path="url(#clip0_416_524)">
<mask id="path-1-inside-1_416_524" fill="white">
<path d="M3 9.88889C3 8.84569 3.84568 8 4.88889 8H17V25H4.88889C3.84568 25 3 24.1543 3 23.1111V9.88889Z"/>
</mask>
<path d="M3 9.88889C3 8.84569 3.84568 8 4.88889 8H17V25H4.88889C3.84568 25 3 24.1543 3 23.1111V9.88889Z" fill="#692ACE"/>
<path d="M1 9.88889C1 7.74111 2.74111 6 4.88889 6H17V10H5L1 9.88889ZM17 27H4.88889C2.74111 27 1 25.2589 1 23.1111L5 23H17V27ZM4.88889 27C2.74111 27 1 25.2589 1 23.1111V9.88889C1 7.74111 2.74111 6 4.88889 6L5 10V23L4.88889 27ZM17 8V25V8Z" fill="#692ACE" mask="url(#path-1-inside-1_416_524)"/>
<mask id="path-3-inside-2_416_524" fill="white">
<path d="M31 9.88889C31 8.84569 30.1543 8 29.1111 8H17V25H29.1111C30.1543 25 31 24.1543 31 23.1111V9.88889Z"/>
</mask>
<path d="M31 9.88889C31 8.84569 30.1543 8 29.1111 8H17V25H29.1111C30.1543 25 31 24.1543 31 23.1111V9.88889Z" fill="#351568"/>
<path d="M33 9.88889C33 7.74111 31.2589 6 29.1111 6H17V10H29L33 9.88889ZM17 27H29.1111C31.2589 27 33 25.2589 33 23.1111L29 23H17V27ZM29.1111 27C31.2589 27 33 25.2589 33 23.1111V9.88889C33 7.74111 31.2589 6 29.1111 6L29 10V23L29.1111 27ZM17 8V25V8Z" fill="#351568" mask="url(#path-3-inside-2_416_524)"/>
<path d="M4.78061 9H16V16L4.37979 10.9162C3.38733 10.482 3.69732 9 4.78061 9Z" fill="#0FC4BF" stroke="#0FC4BF" stroke-width="2"/>
<path d="M29.2194 9H18V16L29.6202 10.9162C30.6127 10.482 30.3027 9 29.2194 9Z" fill="#0273AF" stroke="#0273AF" stroke-width="2"/>
<path d="M29 10H17V15.5L29 10Z" fill="#0273AF"/>
<path d="M5 10H17V15.5L5 10Z" fill="#0FC4BF"/>
</g>
<defs>
<clipPath id="clip0_416_524">
<rect width="32.5378" height="32.5378" fill="white"/>
</clipPath>
</defs>
</svg>
