<svg width="33" height="34" viewBox="0 0 33 34" fill="none" xmlns="http://www.w3.org/2000/svg">
<path d="M24.7468 13.386V23.0692C24.7468 23.4776 24.4157 23.8087 24.0073 23.8087H15.1527V12.6465H24.0073C24.4157 12.6465 24.7468 12.9776 24.7468 13.386Z" fill="#351568"/>
<path d="M4.88342 23.0698V12.4766V10.26C4.88342 9.85159 5.21451 9.52051 5.62292 9.52051H12.3028C12.5278 9.52051 12.7406 9.62292 12.8809 9.79878L15.1526 12.6459V23.8081H5.62292C5.21451 23.8081 4.88342 23.4782 4.88342 23.0698Z" fill="#692ACE"/>
<path d="M7.93012 15.3365L4.85802 22.7873C4.65732 23.274 5.01517 23.8087 5.54169 23.8087H15.3661L18.278 14.8789H8.61378C8.31425 14.8789 8.0443 15.0596 7.93012 15.3365Z" fill="#0FC4BF"/>
<path d="M25.0419 23.321L27.7415 15.8702C27.9162 15.3881 27.5591 14.8788 27.0462 14.8788H17.6179L14.7061 23.8086H24.3467C24.658 23.8086 24.9359 23.6137 25.0419 23.321Z" fill="#0273AF"/>
</svg>
