<svg width="33" height="33" viewBox="0 0 33 33" fill="none" xmlns="http://www.w3.org/2000/svg">
<path d="M8.8739 14.79L8.8739 27.3615H6.65541L6.65541 17.0085C6.65541 15.7833 7.64866 14.79 8.8739 14.79V14.79Z" fill="#0FC2BF"/>
<path d="M8.8739 14.79L8.8739 27.3615H11.0924L11.0924 17.0085C11.0924 15.7833 10.0991 14.79 8.8739 14.79V14.79Z" fill="#0273AF"/>
<path d="M16.2688 4.4375V25.1434H14.0503L14.0503 6.65599C14.0503 5.43075 15.0436 4.4375 16.2688 4.4375V4.4375Z" fill="#0FC2BF"/>
<path d="M23.6638 9.61426V26.6227H21.4453V11.8327C21.4453 10.6075 22.4386 9.61426 23.6638 9.61426V9.61426Z" fill="#0FC2BF"/>
<path d="M4.43689 26.411C4.43689 25.4775 5.19366 24.7207 6.12718 24.7207H16.2689V28.1013H6.12718C5.19366 28.1013 4.43689 27.3445 4.43689 26.411V26.411Z" fill="#692ACE"/>
<path d="M16.2689 4.4375L16.2689 25.1434H18.4874L18.4874 6.65599C18.4874 5.43075 17.4942 4.4375 16.2689 4.4375V4.4375Z" fill="#0273AF"/>
<path d="M23.6638 9.61426L23.6638 26.6227H25.8823L25.8823 11.8327C25.8823 10.6075 24.8891 9.61426 23.6638 9.61426V9.61426Z" fill="#0273AF"/>
<path d="M28.101 26.411C28.101 25.4775 27.3442 24.7207 26.4107 24.7207H16.2689V28.1013H26.4107C27.3442 28.1013 28.101 27.3445 28.101 26.411V26.411Z" fill="#351568"/>
</svg>
