<svg width="33" height="34" viewBox="0 0 33 34" fill="none" xmlns="http://www.w3.org/2000/svg">
<path d="M7.20208 12.844L16.4333 5.15137V21.8037H15.5911C14.6041 21.8037 13.804 22.6038 13.804 23.5908V27.0281C13.804 28.0151 13.0039 28.8152 12.0169 28.8152H9.49025C7.51625 28.8152 5.91602 27.215 5.91602 25.241V15.5898C5.91602 14.5291 6.38718 13.5231 7.20208 12.844Z" fill="#692ACE"/>
<path d="M25.6645 12.844L16.4333 5.15137V21.8037H17.2755C18.2625 21.8037 19.0626 22.6038 19.0626 23.5908V27.0281C19.0626 28.0151 19.8627 28.8152 20.8497 28.8152H23.3763C25.3503 28.8152 26.9506 27.215 26.9506 25.241V15.5898C26.9506 14.5291 26.4794 13.5231 25.6645 12.844Z" fill="#351568"/>
<rect x="9.42175" y="13.915" width="4.3822" height="5.25864" rx="0.893557" fill="#0FC2BF"/>
<rect x="19.0626" y="13.915" width="4.3822" height="5.25864" rx="0.893557" fill="#0273AF"/>
</svg>
