<svg width="33" height="33" viewBox="0 0 33 33" fill="none" xmlns="http://www.w3.org/2000/svg">
<path d="M28.1008 9.11367C28.1008 5.23264 17.446 10.0339 17.2034 11.054C16.1656 15.4195 17.2034 25.6066 17.2034 25.6066C20.49 25.1215 27.1668 24.0543 27.5819 23.6663C27.9971 23.2782 28.1008 12.9947 28.1008 9.11367Z" fill="#351568"/>
<path d="M19.5818 13.3013C21.8535 12.0392 23.368 11.7237 25.2611 11.4082" stroke="#0273AF" stroke-width="1.47899" stroke-linecap="round"/>
<path d="M19.5818 17.0874C21.8535 15.8254 23.368 15.5099 25.2611 15.1943" stroke="#0273AF" stroke-width="1.47899" stroke-linecap="round"/>
<path d="M19.5818 20.8733C20.7177 20.2423 21.4749 20.0845 22.4215 19.9268" stroke="#0273AF" stroke-width="1.47899" stroke-linecap="round"/>
<path d="M4.437 9.11367C4.437 5.23264 15.0919 10.0339 15.3344 11.054C16.3722 15.4195 15.3344 25.6066 15.3344 25.6066C12.0479 25.1215 5.37106 24.0543 4.95592 23.6663C4.54078 23.2782 4.437 12.9947 4.437 9.11367Z" fill="#692ACE"/>
<path d="M12.9559 13.3013C10.6842 12.0392 9.16971 11.7237 7.2766 11.4082" stroke="#0FC4BF" stroke-width="1.47899" stroke-linecap="round"/>
<path d="M12.9559 17.0874C10.6842 15.8254 9.16971 15.5099 7.2766 15.1943" stroke="#0FC4BF" stroke-width="1.47899" stroke-linecap="round"/>
<path d="M12.9559 20.8733C11.8201 20.2423 11.0628 20.0845 10.1163 19.9268" stroke="#0FC4BF" stroke-width="1.47899" stroke-linecap="round"/>
</svg>
