<svg width="33" height="33" viewBox="0 0 33 33" fill="none" xmlns="http://www.w3.org/2000/svg">
<g clip-path="url(#clip0_416_5)">
<path d="M10.1919 26.6921C7.67446 25.4346 5.75965 23.2286 4.86871 20.5593C3.97778 17.8901 4.1837 14.9762 5.44118 12.4587C6.69866 9.94128 8.90469 8.02648 11.574 7.13554C14.2432 6.24461 17.1571 6.45053 19.6746 7.70801" stroke="#0FC4BF" stroke-width="2.5" stroke-linecap="round"/>
<circle cx="13.4927" cy="27.544" r="1.25" transform="rotate(-20.3815 13.4927 27.544)" fill="#0FC2BF"/>
<circle cx="16.7592" cy="27.5538" r="1.25" transform="rotate(-20.3815 16.7592 27.5538)" fill="#0FC2BF"/>
<circle cx="19.8058" cy="26.422" r="1.25" transform="rotate(-20.3815 19.8058 26.422)" fill="#0FC2BF"/>
<line y1="-2" x2="7.02996" y2="-2" transform="matrix(-1 0 0 1 31.0277 19)" stroke="#692ACE" stroke-width="4"/>
<path d="M24 17H16" stroke="#351568" stroke-width="4"/>
<path d="M23.0607 12.0607C23.6464 11.4749 23.6464 10.5251 23.0607 9.93934C22.4749 9.35355 21.5251 9.35355 20.9393 9.93934L23.0607 12.0607ZM15.2825 15.5962L14.2218 16.6569L16.3431 18.7782L17.4038 17.7175L15.2825 15.5962ZM20.9393 9.93934L15.2825 15.5962L17.4038 17.7175L23.0607 12.0607L20.9393 9.93934Z" fill="#351568"/>
<path d="M23.1142 22.653C23.6689 23.2684 23.6196 24.2168 23.0042 24.7715C22.3889 25.3261 21.4404 25.2768 20.8858 24.6615L23.1142 22.653ZM14.8858 18.0042L13.8815 16.89L16.11 14.8815L17.1142 15.9958L14.8858 18.0042ZM20.8858 24.6615L14.8858 18.0042L17.1142 15.9958L23.1142 22.653L20.8858 24.6615Z" fill="#351568"/>
</g>
<defs>
<clipPath id="clip0_416_5">
<rect width="32.5378" height="32.5378" fill="white"/>
</clipPath>
</defs>
</svg>
