<svg width="33" height="33" viewBox="0 0 33 33" fill="none" xmlns="http://www.w3.org/2000/svg">
<g clip-path="url(#clip0_363_27)">
<path d="M10.1919 26.6921C7.67446 25.4346 5.75965 23.2286 4.86871 20.5593C3.97778 17.8901 4.1837 14.9762 5.44118 12.4587C6.69866 9.94128 8.90469 8.02648 11.574 7.13554C14.2432 6.24461 17.1571 6.45053 19.6746 7.70801" stroke="#0FC4BF" stroke-width="2.5" stroke-linecap="round"/>
<circle cx="13.4927" cy="27.544" r="1.25" transform="rotate(-20.3815 13.4927 27.544)" fill="#0FC2BF"/>
<circle cx="16.7592" cy="27.5538" r="1.25" transform="rotate(-20.3815 16.7592 27.5538)" fill="#0FC2BF"/>
<circle cx="19.8058" cy="26.422" r="1.25" transform="rotate(-20.3815 19.8058 26.422)" fill="#0FC2BF"/>
<line x1="14" y1="17" x2="21.03" y2="17" stroke="#692ACE" stroke-width="4"/>
<path d="M21.0277 17H29.0277" stroke="#351568" stroke-width="4"/>
<path d="M21.967 12.0607C21.3813 11.4749 21.3813 10.5251 21.967 9.93934C22.5528 9.35355 23.5026 9.35355 24.0884 9.93934L21.967 12.0607ZM29.7452 15.5962L30.8059 16.6569L28.6846 18.7782L27.6239 17.7175L29.7452 15.5962ZM24.0884 9.93934L29.7452 15.5962L27.6239 17.7175L21.967 12.0607L24.0884 9.93934Z" fill="#351568"/>
<path d="M21.9135 22.653C21.3589 23.2684 21.4081 24.2168 22.0235 24.7715C22.6389 25.3261 23.5873 25.2768 24.1419 24.6615L21.9135 22.653ZM30.1419 18.0042L31.1462 16.89L28.9177 14.8815L27.9135 15.9958L30.1419 18.0042ZM24.1419 24.6615L30.1419 18.0042L27.9135 15.9958L21.9135 22.653L24.1419 24.6615Z" fill="#351568"/>
</g>
<defs>
<clipPath id="clip0_363_27">
<rect width="32.5378" height="32.5378" fill="white"/>
</clipPath>
</defs>
</svg>
