<svg width="212" height="138" viewBox="0 0 212 138" fill="none" xmlns="http://www.w3.org/2000/svg">
<g filter="url(#filter0_i_279_457)">
<path d="M100.95 70.304L98.1877 66.5815L98.0206 66.7055L97.8653 66.8439L100.95 70.304ZM101.983 70.3115L99.1677 73.9936L99.1677 73.9936L101.983 70.3115ZM111.472 77.5669L108.657 81.2491L108.657 81.2491L111.472 77.5669ZM112.604 77.4897L115.895 80.7535L115.895 80.7534L112.604 77.4897ZM128.731 61.2263L125.44 57.9626L125.44 57.9626L128.731 61.2263ZM129.788 61.0984L132.203 57.1422L132.203 57.1422L129.788 61.0984ZM141.893 68.4874L139.477 72.4436L139.477 72.4436L141.893 68.4874ZM142.967 68.3418L146.35 71.5098L142.967 68.3418ZM182.899 3.0108C180.496 3.89188 179.262 6.55456 180.143 8.95807C181.024 11.3616 183.687 12.5957 186.09 11.7147L182.899 3.0108ZM204.374 0.0756014L202.778 -4.27633V-4.27633L204.374 0.0756014ZM205.989 1.36191L201.394 0.756332V0.756333L205.989 1.36191ZM198.481 22.8572C198.147 25.3952 199.933 27.7238 202.471 28.0582C205.009 28.3927 207.338 26.6063 207.672 24.0684L198.481 22.8572ZM74.0842 100.46L104.034 73.7641L97.8653 66.8439L67.9158 93.5399L74.0842 100.46ZM99.1677 73.9936L108.657 81.2491L114.288 73.8848L104.798 66.6293L99.1677 73.9936ZM115.895 80.7534L132.022 64.4901L125.44 57.9626L109.312 74.226L115.895 80.7534ZM127.373 65.0547L139.477 72.4436L144.308 64.5311L132.203 57.1422L127.373 65.0547ZM146.35 71.5098L205.101 8.76255L198.334 2.42656L139.583 65.1738L146.35 71.5098ZM139.477 72.4436C141.697 73.7987 144.569 73.4129 146.35 71.5098L139.583 65.1738C140.81 63.8641 142.782 63.6001 144.308 64.5311L139.477 72.4436ZM132.022 64.4901C130.788 65.7348 128.864 65.9648 127.373 65.0547L132.203 57.1422C130.034 55.8176 127.234 56.1536 125.44 57.9626L132.022 64.4901ZM108.657 81.2491C110.85 82.9255 113.949 82.7157 115.895 80.7535L109.313 74.2259C110.651 72.876 112.781 72.7325 114.288 73.8848L108.657 81.2491ZM103.711 74.0265C102.359 75.0299 100.506 75.0168 99.1677 73.9936L104.798 66.6293C102.852 65.1412 100.155 65.1219 98.1877 66.5815L103.711 74.0265ZM186.09 11.7147L205.969 4.42754L202.778 -4.27633L182.899 3.0108L186.09 11.7147ZM201.394 0.756333L198.481 22.8572L207.672 24.0684L210.585 1.96748L201.394 0.756333ZM205.969 4.42754C203.583 5.30215 201.053 3.34667 201.394 0.756332L210.585 1.96748C211.163 -2.41774 206.87 -5.77622 202.778 -4.27633L205.969 4.42754Z" fill="url(#paint0_linear_279_457)"/>
</g>
<line x1="22.3975" y1="76.7961" x2="52.9423" y2="113.969" stroke="#0A2253" stroke-width="5.76318"/>
<circle cx="22.6205" cy="76.463" r="10.2296" fill="#0A2253"/>
<g filter="url(#filter1_i_279_457)">
<path d="M10.9226 87.7017C8.02573 84.6034 6.47829 80.4813 6.62068 76.2422C6.76308 72.003 8.58364 67.994 11.6819 65.0972C14.7801 62.2003 18.9022 60.6529 23.1414 60.7953C27.3805 60.9377 31.3895 62.7582 34.2864 65.8564" stroke="#0FC4BF" stroke-width="2.59343" stroke-linecap="round"/>
</g>
<g filter="url(#filter2_i_279_457)">
<circle cx="22.6204" cy="76.4624" r="7.92437" fill="url(#paint1_linear_279_457)"/>
</g>
<circle cx="53.0213" cy="112.626" r="19.5948" fill="#0A2253"/>
<g filter="url(#filter3_i_279_457)">
<circle cx="53.1653" cy="113.059" r="18.2981" fill="url(#paint2_linear_279_457)"/>
</g>
<g filter="url(#filter4_d_279_457)">
<circle cx="53.1652" cy="113.06" r="9.5587" fill="url(#paint3_linear_279_457)"/>
</g>
<path d="M88.4818 109.948L86.2371 112.193C85.325 111.29 84.4971 110.838 83.7533 110.838C83.346 110.838 83.0272 110.927 82.797 111.104C82.5668 111.272 82.4516 111.484 82.4516 111.741C82.4516 111.936 82.5225 112.118 82.6642 112.286C82.8147 112.445 83.1777 112.667 83.7533 112.95L85.0815 113.614C86.4806 114.305 87.4414 115.009 87.9638 115.726C88.4862 116.443 88.7475 117.284 88.7475 118.25C88.7475 119.534 88.2737 120.605 87.3262 121.464C86.3876 122.323 85.1258 122.752 83.5408 122.752C81.4333 122.752 79.7509 121.929 78.4935 120.282L80.7249 117.851C81.15 118.347 81.6458 118.75 82.2126 119.06C82.7881 119.361 83.2973 119.511 83.74 119.511C84.2182 119.511 84.6034 119.396 84.8956 119.166C85.1878 118.936 85.3339 118.67 85.3339 118.369C85.3339 117.811 84.807 117.267 83.7533 116.735L82.5313 116.124C80.1936 114.947 79.0248 113.472 79.0248 111.701C79.0248 110.559 79.4631 109.585 80.3397 108.779C81.2252 107.965 82.3542 107.557 83.7267 107.557C84.6654 107.557 85.5464 107.765 86.3699 108.182C87.2023 108.589 87.9062 109.178 88.4818 109.948ZM91.5899 107.929H95.2292V109.589C95.8491 108.908 96.5353 108.399 97.288 108.062C98.0495 107.726 98.8774 107.557 99.7718 107.557C100.675 107.557 101.49 107.779 102.216 108.221C102.942 108.664 103.526 109.311 103.969 110.161C104.545 109.311 105.249 108.664 106.081 108.221C106.922 107.779 107.839 107.557 108.83 107.557C109.857 107.557 110.761 107.796 111.54 108.275C112.319 108.753 112.877 109.377 113.213 110.147C113.559 110.918 113.731 112.171 113.731 113.906V122.38H110.079V115.049C110.079 113.41 109.875 112.304 109.468 111.728C109.061 111.144 108.45 110.851 107.635 110.851C107.015 110.851 106.457 111.028 105.961 111.383C105.474 111.737 105.111 112.228 104.872 112.857C104.633 113.477 104.514 114.477 104.514 115.859V122.38H100.861V115.381C100.861 114.088 100.764 113.154 100.569 112.578C100.383 111.994 100.099 111.56 99.7187 111.276C99.3379 110.993 98.8774 110.851 98.3373 110.851C97.7352 110.851 97.1862 111.033 96.6903 111.396C96.2033 111.75 95.8358 112.25 95.5878 112.897C95.3488 113.543 95.2292 114.562 95.2292 115.952V122.38H91.5899V107.929ZM127.877 107.929H131.49V122.38H127.877V120.853C127.169 121.526 126.456 122.013 125.739 122.314C125.03 122.606 124.26 122.752 123.428 122.752C121.559 122.752 119.943 122.031 118.58 120.587C117.216 119.135 116.534 117.333 116.534 115.181C116.534 112.95 117.194 111.121 118.513 109.696C119.833 108.27 121.435 107.557 123.321 107.557C124.189 107.557 125.004 107.721 125.765 108.049C126.527 108.376 127.231 108.868 127.877 109.523V107.929ZM124.065 110.904C122.941 110.904 122.006 111.303 121.263 112.1C120.519 112.888 120.147 113.902 120.147 115.142C120.147 116.39 120.523 117.417 121.276 118.223C122.037 119.029 122.972 119.432 124.078 119.432C125.221 119.432 126.168 119.038 126.921 118.25C127.674 117.453 128.05 116.412 128.05 115.128C128.05 113.871 127.674 112.853 126.921 112.073C126.168 111.294 125.216 110.904 124.065 110.904ZM134.306 107.929H137.414V109.749C137.75 109.032 138.198 108.487 138.755 108.115C139.313 107.743 139.924 107.557 140.588 107.557C141.058 107.557 141.549 107.681 142.063 107.929L140.934 111.051C140.509 110.838 140.159 110.732 139.884 110.732C139.327 110.732 138.853 111.077 138.463 111.768C138.082 112.458 137.892 113.813 137.892 115.832L137.905 116.536V122.38H134.306V107.929ZM144.307 102.603H147.92V107.929H150.072V111.051H147.92V122.38H144.307V111.051H142.448V107.929H144.307V102.603ZM170.327 107.929H173.94V120.308C173.94 122.752 173.449 124.55 172.466 125.701C171.147 127.259 169.159 128.039 166.502 128.039C165.085 128.039 163.894 127.862 162.929 127.507C161.964 127.153 161.149 126.631 160.485 125.94C159.821 125.258 159.33 124.426 159.011 123.443H163.009C163.363 123.85 163.819 124.156 164.377 124.359C164.935 124.572 165.595 124.678 166.356 124.678C167.33 124.678 168.114 124.528 168.707 124.227C169.3 123.926 169.716 123.536 169.956 123.058C170.203 122.58 170.327 121.756 170.327 120.587C169.69 121.225 169.021 121.685 168.322 121.969C167.622 122.243 166.83 122.38 165.944 122.38C164.005 122.38 162.367 121.681 161.03 120.282C159.693 118.883 159.024 117.112 159.024 114.969C159.024 112.675 159.733 110.834 161.149 109.443C162.433 108.186 163.965 107.557 165.745 107.557C166.577 107.557 167.361 107.712 168.096 108.022C168.84 108.323 169.584 108.824 170.327 109.523V107.929ZM166.569 110.944C165.426 110.944 164.483 111.329 163.739 112.1C162.996 112.861 162.624 113.822 162.624 114.982C162.624 116.186 163.004 117.174 163.766 117.944C164.528 118.714 165.484 119.1 166.635 119.1C167.76 119.1 168.685 118.723 169.411 117.971C170.146 117.218 170.513 116.231 170.513 115.009C170.513 113.804 170.146 112.826 169.411 112.073C168.676 111.321 167.729 110.944 166.569 110.944ZM188.285 107.929H191.898V122.38H188.285V120.853C187.577 121.526 186.864 122.013 186.147 122.314C185.438 122.606 184.668 122.752 183.836 122.752C181.967 122.752 180.351 122.031 178.988 120.587C177.624 119.135 176.942 117.333 176.942 115.181C176.942 112.95 177.602 111.121 178.921 109.696C180.24 108.27 181.843 107.557 183.729 107.557C184.597 107.557 185.412 107.721 186.173 108.049C186.935 108.376 187.639 108.868 188.285 109.523V107.929ZM184.473 110.904C183.349 110.904 182.414 111.303 181.671 112.1C180.927 112.888 180.555 113.902 180.555 115.142C180.555 116.39 180.931 117.417 181.684 118.223C182.445 119.029 183.38 119.432 184.486 119.432C185.629 119.432 186.576 119.038 187.329 118.25C188.081 117.453 188.458 116.412 188.458 115.128C188.458 113.871 188.081 112.853 187.329 112.073C186.576 111.294 185.624 110.904 184.473 110.904ZM199.163 107.929V109.523C199.819 108.868 200.527 108.376 201.289 108.049C202.05 107.721 202.865 107.557 203.732 107.557C205.619 107.557 207.221 108.27 208.541 109.696C209.86 111.121 210.52 112.95 210.52 115.181C210.52 117.333 209.838 119.135 208.474 120.587C207.111 122.031 205.495 122.752 203.626 122.752C202.794 122.752 202.019 122.606 201.302 122.314C200.585 122.013 199.872 121.526 199.163 120.853V127.667H195.564V107.929H199.163ZM202.975 110.904C201.833 110.904 200.886 111.294 200.133 112.073C199.38 112.853 199.004 113.871 199.004 115.128C199.004 116.412 199.38 117.453 200.133 118.25C200.886 119.038 201.833 119.432 202.975 119.432C204.082 119.432 205.012 119.029 205.765 118.223C206.526 117.417 206.907 116.39 206.907 115.142C206.907 113.902 206.535 112.888 205.791 112.1C205.047 111.303 204.109 110.904 202.975 110.904Z" fill="#231550"/>
<g filter="url(#filter5_i_279_457)">
<circle cx="14.6961" cy="90.1925" r="1.44079" fill="#0FC2BF"/>
</g>
<g filter="url(#filter6_i_279_457)">
<circle cx="19.3067" cy="91.9222" r="1.44079" fill="#0FC2BF"/>
</g>
<g filter="url(#filter7_i_279_457)">
<circle cx="24.2053" cy="91.9222" r="1.44079" fill="#0FC2BF"/>
</g>
<defs>
<filter id="filter0_i_279_457" x="67.9158" y="-4.9382" width="142.721" height="105.398" filterUnits="userSpaceOnUse" color-interpolation-filters="sRGB">
<feFlood flood-opacity="0" result="BackgroundImageFix"/>
<feBlend mode="normal" in="SourceGraphic" in2="BackgroundImageFix" result="shape"/>
<feColorMatrix in="SourceAlpha" type="matrix" values="0 0 0 0 0 0 0 0 0 0 0 0 0 0 0 0 0 0 127 0" result="hardAlpha"/>
<feOffset dy="-2.39232"/>
<feGaussianBlur stdDeviation="0.14952"/>
<feComposite in2="hardAlpha" operator="arithmetic" k2="-1" k3="1"/>
<feColorMatrix type="matrix" values="0 0 0 0 0.0392157 0 0 0 0 0.133333 0 0 0 0 0.32549 0 0 0 1 0"/>
<feBlend mode="normal" in2="shape" result="effect1_innerShadow_279_457"/>
</filter>
<filter id="filter1_i_279_457" x="5.31494" y="59.2013" width="30.2681" height="29.7969" filterUnits="userSpaceOnUse" color-interpolation-filters="sRGB">
<feFlood flood-opacity="0" result="BackgroundImageFix"/>
<feBlend mode="normal" in="SourceGraphic" in2="BackgroundImageFix" result="shape"/>
<feColorMatrix in="SourceAlpha" type="matrix" values="0 0 0 0 0 0 0 0 0 0 0 0 0 0 0 0 0 0 127 0" result="hardAlpha"/>
<feOffset dy="-0.288159"/>
<feGaussianBlur stdDeviation="0.576318"/>
<feComposite in2="hardAlpha" operator="arithmetic" k2="-1" k3="1"/>
<feColorMatrix type="matrix" values="0 0 0 0 0.129412 0 0 0 0 0.0901961 0 0 0 0 0.27451 0 0 0 1 0"/>
<feBlend mode="normal" in2="shape" result="effect1_innerShadow_279_457"/>
</filter>
<filter id="filter2_i_279_457" x="14.696" y="68.065" width="15.8487" height="16.3217" filterUnits="userSpaceOnUse" color-interpolation-filters="sRGB">
<feFlood flood-opacity="0" result="BackgroundImageFix"/>
<feBlend mode="normal" in="SourceGraphic" in2="BackgroundImageFix" result="shape"/>
<feColorMatrix in="SourceAlpha" type="matrix" values="0 0 0 0 0 0 0 0 0 0 0 0 0 0 0 0 0 0 127 0" result="hardAlpha"/>
<feOffset dy="-0.946193"/>
<feGaussianBlur stdDeviation="0.236548"/>
<feComposite in2="hardAlpha" operator="arithmetic" k2="-1" k3="1"/>
<feColorMatrix type="matrix" values="0 0 0 0 0.129412 0 0 0 0 0.0901961 0 0 0 0 0.27451 0 0 0 1 0"/>
<feBlend mode="normal" in2="shape" result="effect1_innerShadow_279_457"/>
</filter>
<filter id="filter3_i_279_457" x="34.8672" y="93.6686" width="36.5962" height="37.6886" filterUnits="userSpaceOnUse" color-interpolation-filters="sRGB">
<feFlood flood-opacity="0" result="BackgroundImageFix"/>
<feBlend mode="normal" in="SourceGraphic" in2="BackgroundImageFix" result="shape"/>
<feColorMatrix in="SourceAlpha" type="matrix" values="0 0 0 0 0 0 0 0 0 0 0 0 0 0 0 0 0 0 127 0" result="hardAlpha"/>
<feOffset dy="-2.18485"/>
<feGaussianBlur stdDeviation="0.546211"/>
<feComposite in2="hardAlpha" operator="arithmetic" k2="-1" k3="1"/>
<feColorMatrix type="matrix" values="0 0 0 0 0.129412 0 0 0 0 0.0901961 0 0 0 0 0.27451 0 0 0 1 0"/>
<feBlend mode="normal" in2="shape" result="effect1_innerShadow_279_457"/>
</filter>
<filter id="filter4_d_279_457" x="42.4539" y="103.501" width="21.4227" height="21.4227" filterUnits="userSpaceOnUse" color-interpolation-filters="sRGB">
<feFlood flood-opacity="0" result="BackgroundImageFix"/>
<feColorMatrix in="SourceAlpha" type="matrix" values="0 0 0 0 0 0 0 0 0 0 0 0 0 0 0 0 0 0 127 0" result="hardAlpha"/>
<feOffset dy="1.15264"/>
<feGaussianBlur stdDeviation="0.576318"/>
<feComposite in2="hardAlpha" operator="out"/>
<feColorMatrix type="matrix" values="0 0 0 0 0 0 0 0 0 0 0 0 0 0 0 0 0 0 0.25 0"/>
<feBlend mode="normal" in2="BackgroundImageFix" result="effect1_dropShadow_279_457"/>
<feBlend mode="normal" in="SourceGraphic" in2="effect1_dropShadow_279_457" result="shape"/>
</filter>
<filter id="filter5_i_279_457" x="13.2553" y="88.4636" width="2.88158" height="3.16975" filterUnits="userSpaceOnUse" color-interpolation-filters="sRGB">
<feFlood flood-opacity="0" result="BackgroundImageFix"/>
<feBlend mode="normal" in="SourceGraphic" in2="BackgroundImageFix" result="shape"/>
<feColorMatrix in="SourceAlpha" type="matrix" values="0 0 0 0 0 0 0 0 0 0 0 0 0 0 0 0 0 0 127 0" result="hardAlpha"/>
<feOffset dy="-0.288159"/>
<feGaussianBlur stdDeviation="0.576318"/>
<feComposite in2="hardAlpha" operator="arithmetic" k2="-1" k3="1"/>
<feColorMatrix type="matrix" values="0 0 0 0 0.0392157 0 0 0 0 0.133333 0 0 0 0 0.32549 0 0 0 1 0"/>
<feBlend mode="normal" in2="shape" result="effect1_innerShadow_279_457"/>
</filter>
<filter id="filter6_i_279_457" x="17.8659" y="90.1933" width="2.88158" height="3.16975" filterUnits="userSpaceOnUse" color-interpolation-filters="sRGB">
<feFlood flood-opacity="0" result="BackgroundImageFix"/>
<feBlend mode="normal" in="SourceGraphic" in2="BackgroundImageFix" result="shape"/>
<feColorMatrix in="SourceAlpha" type="matrix" values="0 0 0 0 0 0 0 0 0 0 0 0 0 0 0 0 0 0 127 0" result="hardAlpha"/>
<feOffset dy="-0.288159"/>
<feGaussianBlur stdDeviation="0.576318"/>
<feComposite in2="hardAlpha" operator="arithmetic" k2="-1" k3="1"/>
<feColorMatrix type="matrix" values="0 0 0 0 0.0392157 0 0 0 0 0.133333 0 0 0 0 0.32549 0 0 0 1 0"/>
<feBlend mode="normal" in2="shape" result="effect1_innerShadow_279_457"/>
</filter>
<filter id="filter7_i_279_457" x="22.7645" y="90.1933" width="2.88158" height="3.16975" filterUnits="userSpaceOnUse" color-interpolation-filters="sRGB">
<feFlood flood-opacity="0" result="BackgroundImageFix"/>
<feBlend mode="normal" in="SourceGraphic" in2="BackgroundImageFix" result="shape"/>
<feColorMatrix in="SourceAlpha" type="matrix" values="0 0 0 0 0 0 0 0 0 0 0 0 0 0 0 0 0 0 127 0" result="hardAlpha"/>
<feOffset dy="-0.288159"/>
<feGaussianBlur stdDeviation="0.576318"/>
<feComposite in2="hardAlpha" operator="arithmetic" k2="-1" k3="1"/>
<feColorMatrix type="matrix" values="0 0 0 0 0.0392157 0 0 0 0 0.133333 0 0 0 0 0.32549 0 0 0 1 0"/>
<feBlend mode="normal" in2="shape" result="effect1_innerShadow_279_457"/>
</filter>
<linearGradient id="paint0_linear_279_457" x1="202.146" y1="-2.19363" x2="190.958" y2="123.233" gradientUnits="userSpaceOnUse">
<stop stop-color="#0FC4BF"/>
<stop offset="1" stop-color="#0273AF"/>
</linearGradient>
<linearGradient id="paint1_linear_279_457" x1="19.9001" y1="69.1295" x2="24.0397" y2="83.6772" gradientUnits="userSpaceOnUse">
<stop stop-color="#D15A97"/>
<stop offset="1" stop-color="#91229A"/>
</linearGradient>
<linearGradient id="paint2_linear_279_457" x1="46.8838" y1="96.1265" x2="56.4425" y2="129.719" gradientUnits="userSpaceOnUse">
<stop stop-color="#D15A97"/>
<stop offset="1" stop-color="#91229A"/>
</linearGradient>
<linearGradient id="paint3_linear_279_457" x1="57.808" y1="126.169" x2="50.161" y2="103.501" gradientUnits="userSpaceOnUse">
<stop stop-color="#351568"/>
<stop offset="1" stop-color="#692ACE"/>
</linearGradient>
</defs>
</svg>
