<?xml version="1.0" encoding="UTF-8" standalone="no" ?>
<!DOCTYPE svg PUBLIC "-//W3C//DTD SVG 1.1//EN" "http://www.w3.org/Graphics/SVG/1.1/DTD/svg11.dtd">
<svg xmlns="http://www.w3.org/2000/svg" xmlns:xlink="http://www.w3.org/1999/xlink" version="1.1" width="1080" height="1080" viewBox="0 0 1080 1080" xml:space="preserve">
<desc>Created with Fabric.js 5.2.4</desc>
<defs>
</defs>
<g transform="matrix(1 0 0 1 540 540)" id="d98b6d8c-c27d-4792-bc62-456be5fbc069"  >
<rect style="stroke: none; stroke-width: 1; stroke-dasharray: none; stroke-linecap: butt; stroke-dashoffset: 0; stroke-linejoin: miter; stroke-miterlimit: 4; fill: rgb(255,255,255); fill-rule: nonzero; opacity: 1; visibility: hidden;" vector-effect="non-scaling-stroke"  x="-540" y="-540" rx="0" ry="0" width="1080" height="1080" />
</g>
<g transform="matrix(1 0 0 1 540 540)" id="c4afabc0-7869-4b22-babb-0b6ecb5f31e3"  >
</g>
<g transform="matrix(1 0 0 1 540 540)"  >
<g style="" vector-effect="non-scaling-stroke"   >
		<g transform="matrix(1.59 0 0 1.59 -27.1 0.27)"  >
<path style="stroke: none; stroke-width: 1; stroke-dasharray: none; stroke-linecap: butt; stroke-dashoffset: 0; stroke-linejoin: miter; stroke-miterlimit: 4; fill: rgb(244,190,111); fill-rule: nonzero; opacity: 1;" vector-effect="non-scaling-stroke"  transform=" translate(-233.84, -251.07)" d="M 327.704 251.075 L 327.704 302.275 L 327.704 430.275 C 327.704 449.048 312.344 464.40799999999996 293.571 464.40799999999996 L 139.97100000000003 464.40799999999996 L 139.97100000000003 37.741 L 293.571 37.741 C 312.34400000000005 37.741 327.704 53.101 327.704 71.874 L 327.704 251.075 z" stroke-linecap="round" />
</g>
		<g transform="matrix(1.59 0 0 1.59 -284.55 0.27)"  >
<path style="stroke: none; stroke-width: 1; stroke-dasharray: none; stroke-linecap: butt; stroke-dashoffset: 0; stroke-linejoin: miter; stroke-miterlimit: 4; fill: rgb(85,183,168); fill-rule: nonzero; opacity: 1;" vector-effect="non-scaling-stroke"  transform=" translate(-71.7, -251.07)" d="M 139.971 37.741 L 139.971 464.40799999999996 L 139.971 472.941 C 139.971 491.714 126.318 502.808 110.104 496.83399999999995 L 29.037000000000006 464.4069999999999 C 9.410000000000007 457.5799999999999 3.4370000000000047 449.0469999999999 3.4370000000000047 430.27399999999994 L 3.4370000000000047 71.87399999999997 C 3.4370000000000047 53.10099999999997 10.264000000000005 44.566999999999965 29.037000000000006 37.740999999999964 L 110.104 5.3139999999999645 C 126.31700000000001 -0.6590000000000353 139.971 10.433999999999966 139.971 29.206999999999965 L 139.971 37.741 z" stroke-linecap="round" />
</g>
		<g transform="matrix(1.59 0 0 1.59 0 0)"  >
<path style="stroke: none; stroke-width: 1; stroke-dasharray: none; stroke-linecap: butt; stroke-dashoffset: 0; stroke-linejoin: miter; stroke-miterlimit: 4; fill: rgb(81,86,95); fill-rule: nonzero; opacity: 1;" vector-effect="non-scaling-stroke"  transform=" translate(-251.9, -251.9)" d="M 119.637 503.808 C 116.224 503.808 112.81 502.955 109.397 502.101 L 28.33 469.675 C 7.849999999999998 461.995 0.16999999999999815 451.755 0.16999999999999815 431.27500000000003 L 0.16999999999999815 72.87500000000006 C 0.16999999999999815 52.39500000000005 7.849999999999998 42.15500000000006 28.33 34.47500000000006 L 109.39699999999999 2.0480000000000587 C 117.92999999999999 -1.3649999999999411 126.464 -0.5119999999999414 133.29 4.608000000000059 C 140.97 9.728000000000058 145.237 19.11500000000006 145.237 30.208000000000062 L 145.237 473.9410000000001 C 145.237 485.0340000000001 140.97 494.4210000000001 133.29 499.5410000000001 C 129.877 502.101 124.757 503.808 119.637 503.808 z M 119.637 8.875 C 117.077 8.875 114.517 9.728 111.957 10.582 L 30.891 43.008 C 12.970999999999997 49.835 7.850999999999999 56.661 7.850999999999999 72.875 L 7.850999999999999 431.275 C 7.850999999999999 448.342 12.971 455.168 30.891 461.142 L 111.958 493.569 C 117.931 496.129 123.905 495.276 128.171 492.716 C 133.291 489.303 135.851 482.476 135.851 473.943 L 135.851 30.208 C 135.851 21.674999999999997 133.291 14.847999999999999 128.171 11.434999999999999 C 126.464 9.728 123.051 8.875 119.637 8.875 z M 294.571 469.675 L 175.104 469.675 C 172.544 469.675 170.83700000000002 467.968 170.83700000000002 465.408 C 170.83700000000002 462.848 172.544 461.141 175.104 461.141 L 294.571 461.141 C 310.78400000000005 461.141 324.43800000000005 447.488 324.43800000000005 431.274 L 324.43800000000005 303.274 C 324.43800000000005 300.714 326.14500000000004 299.007 328.70500000000004 299.007 C 331.26500000000004 299.007 332.97200000000004 300.714 332.97200000000004 303.274 L 332.97200000000004 431.274 C 332.971 452.608 315.904 469.675 294.571 469.675 z M 414.037 341.675 C 413.18399999999997 341.675 411.477 341.675 410.62399999999997 340.822 C 408.917 339.115 408.917 336.555 410.62399999999997 334.849 L 488.277 257.19599999999997 L 192.171 257.19599999999997 C 189.611 257.19599999999997 187.904 255.48899999999998 187.904 252.92899999999997 C 187.904 250.36899999999997 189.611 248.66199999999998 192.171 248.66199999999998 L 489.131 248.66199999999998 L 411.47799999999995 171.00899999999996 C 409.77099999999996 169.30199999999996 409.77099999999996 166.74199999999996 411.47799999999995 165.03599999999994 C 413.18499999999995 163.32899999999995 415.74499999999995 163.32899999999995 417.45099999999996 165.03599999999994 L 502.784 250.36899999999994 C 502.784 250.36899999999994 503.637 251.22199999999995 503.637 252.07599999999994 L 503.637 252.07599999999994 L 503.637 252.07599999999994 C 503.637 252.92899999999995 503.637 252.92899999999995 503.637 253.78299999999993 L 503.637 253.78299999999993 L 503.637 253.78299999999993 L 503.637 253.78299999999993 L 503.637 253.78299999999993 L 503.637 253.78299999999993 L 503.637 253.78299999999993 L 503.637 253.78299999999993 L 503.637 253.78299999999993 L 503.637 253.78299999999993 C 503.637 254.63599999999994 503.637 254.63599999999994 503.637 255.48999999999992 L 503.637 255.48999999999992 L 503.637 255.48999999999992 C 503.637 256.3429999999999 502.784 256.3429999999999 502.784 256.3429999999999 L 502.784 256.3429999999999 L 502.784 256.3429999999999 L 502.784 256.3429999999999 L 502.784 256.3429999999999 L 502.784 256.3429999999999 L 417.451 341.67599999999993 C 416.597 340.821 414.891 341.675 414.037 341.675 z M 106.837 281.941 C 104.277 281.941 102.57000000000001 280.234 102.57000000000001 277.674 L 102.57000000000001 226.474 C 102.57000000000001 223.914 104.277 222.207 106.837 222.207 C 109.397 222.207 111.104 223.914 111.104 226.474 L 111.104 277.674 C 111.104 280.234 109.397 281.941 106.837 281.941 z M 328.704 205.141 C 326.144 205.141 324.437 203.434 324.437 200.874 L 324.437 72.874 C 324.437 56.660999999999994 310.784 43.00699999999999 294.57 43.00699999999999 L 174.25 43.00699999999999 C 171.69 43.00699999999999 169.983 41.29999999999999 169.983 38.73999999999999 C 169.983 36.179999999999986 171.69 34.472999999999985 174.25 34.472999999999985 L 294.57 34.472999999999985 C 315.903 34.472999999999985 332.96999999999997 51.539999999999985 332.96999999999997 72.87299999999999 L 332.96999999999997 200.873 C 332.971 203.434 331.264 205.141 328.704 205.141 z" stroke-linecap="round" />
</g>
</g>
</g>
</svg>