<svg width="33" height="33" viewBox="0 0 33 33" fill="none" xmlns="http://www.w3.org/2000/svg">
<mask id="path-1-inside-1_416_503" fill="white">
<path d="M3 9.88889C3 8.84569 3.84568 8 4.88889 8H16V25H4.88889C3.84569 25 3 24.1543 3 23.1111V9.88889Z"/>
</mask>
<path d="M3 9.88889C3 8.84569 3.84568 8 4.88889 8H16V25H4.88889C3.84569 25 3 24.1543 3 23.1111V9.88889Z" fill="#692ACE"/>
<path d="M2.06 9.88444C2.06 8.32209 3.32654 7.05556 4.88889 7.05556H16V8.94444H4.88889C4.36483 8.94444 3.94 9.36729 3.94 9.88889L2.06 9.88444ZM16 25.94H4.88889C3.32654 25.94 2.06 24.6735 2.06 23.1111L3.94 23.1111C3.94 23.6352 4.36483 24.06 4.88889 24.06H16V25.94ZM4.88889 25.94C3.32654 25.94 2.06 24.6735 2.06 23.1111V9.88444C2.06 8.32209 3.32654 7.05556 4.88889 7.05556L4.88889 8.94444C4.36483 8.94444 3.94 9.36729 3.94 9.88889V23.1111C3.94 23.6352 4.36483 24.06 4.88889 24.06L4.88889 25.94ZM16 8V25V8Z" fill="#692ACE" mask="url(#path-1-inside-1_416_503)"/>
<line x1="3.94214" y1="13.3618" x2="16.0023" y2="13.3618" stroke="#0FC2BF" stroke-width="0.944444"/>
<line x1="3.93994" y1="18.5278" x2="16.0001" y2="18.5278" stroke="#0FC2BF" stroke-width="0.944444"/>
<line x1="11.9722" y1="24.0557" x2="11.9722" y2="8.94455" stroke="#0FC4BF" stroke-width="0.944444"/>
<path d="M7 11H9.4" stroke="#0FC4BF" stroke-width="0.944444" stroke-linecap="round"/>
<path d="M14.3334 10.3608C14.0726 10.3608 13.8612 10.5722 13.8612 10.833C13.8612 11.0938 14.0726 11.3052 14.3334 11.3052V10.3608ZM15.5334 11.3052H16.0056V10.3608H15.5334V11.3052ZM14.3334 11.3052H15.5334V10.3608H14.3334V11.3052Z" fill="#0FC4BF"/>
<mask id="path-8-inside-2_416_503" fill="white">
<path d="M29.0023 9.88889C29.0023 8.84569 28.1566 8 27.1134 8H16.0023V25H27.1134C28.1566 25 29.0023 24.1543 29.0023 23.1111V9.88889Z"/>
</mask>
<path d="M29.0023 9.88889C29.0023 8.84569 28.1566 8 27.1134 8H16.0023V25H27.1134C28.1566 25 29.0023 24.1543 29.0023 23.1111V9.88889Z" fill="#351568"/>
<path d="M29.9423 9.88444C29.9423 8.32209 28.6758 7.05556 27.1134 7.05556H16.0023V8.94444H27.1134C27.6375 8.94444 28.0623 9.36729 28.0623 9.88889L29.9423 9.88444ZM16.0023 25.94H27.1134C28.6758 25.94 29.9423 24.6735 29.9423 23.1111L28.0623 23.1111C28.0623 23.6352 27.6375 24.06 27.1134 24.06H16.0023V25.94ZM27.1134 25.94C28.6758 25.94 29.9423 24.6735 29.9423 23.1111V9.88444C29.9423 8.32209 28.6758 7.05556 27.1134 7.05556L27.1134 8.94444C27.6375 8.94444 28.0623 9.36729 28.0623 9.88889V23.1111C28.0623 23.6352 27.6375 24.06 27.1134 24.06L27.1134 25.94ZM16.0023 8V25V8Z" fill="#351568" mask="url(#path-8-inside-2_416_503)"/>
<line y1="-0.472222" x2="12.0601" y2="-0.472222" transform="matrix(-1 0 0 1 28.0602 13.834)" stroke="#0273AF" stroke-width="0.944444"/>
<line y1="-0.472222" x2="12.0601" y2="-0.472222" transform="matrix(-1 0 0 1 28.0624 19)" stroke="#0273AF" stroke-width="0.944444"/>
<line y1="-0.472222" x2="15.1111" y2="-0.472222" transform="matrix(0 -1 -1 0 19.5579 24.0557)" stroke="#0273AF" stroke-width="0.944444"/>
<path d="M25.0023 11H22.6023" stroke="#0273AF" stroke-width="0.944444" stroke-linecap="round"/>
<path d="M17.6689 10.3608C17.9297 10.3608 18.1412 10.5722 18.1412 10.833C18.1412 11.0938 17.9297 11.3052 17.6689 11.3052V10.3608ZM16.4689 11.3052H15.9967V10.3608H16.4689V11.3052ZM17.6689 11.3052H16.4689V10.3608H17.6689V11.3052Z" fill="#0273AF"/>
</svg>
