<svg width="212" height="143" viewBox="0 0 212 143" fill="none" xmlns="http://www.w3.org/2000/svg">
<g filter="url(#filter0_i_279_457)">
<path d="M100.95 75.304L98.1877 71.5815L98.0206 71.7055L97.8653 71.8439L100.95 75.304ZM101.983 75.3115L99.1677 78.9936L99.1677 78.9936L101.983 75.3115ZM111.472 82.5669L108.657 86.2491L108.657 86.2491L111.472 82.5669ZM112.604 82.4897L115.895 85.7535L115.895 85.7534L112.604 82.4897ZM128.731 66.2263L125.44 62.9626L125.44 62.9626L128.731 66.2263ZM129.788 66.0984L132.203 62.1422L132.203 62.1422L129.788 66.0984ZM141.893 73.4874L139.477 77.4436L139.477 77.4436L141.893 73.4874ZM142.967 73.3418L146.35 76.5098L142.967 73.3418ZM182.899 8.0108C180.496 8.89188 179.262 11.5546 180.143 13.9581C181.024 16.3616 183.687 17.5957 186.09 16.7147L182.899 8.0108ZM204.374 5.0756L202.778 0.723666V0.723667L204.374 5.0756ZM205.989 6.36191L201.394 5.75633V5.75633L205.989 6.36191ZM198.481 27.8572C198.147 30.3952 199.933 32.7238 202.471 33.0582C205.009 33.3927 207.338 31.6063 207.672 29.0684L198.481 27.8572ZM74.0842 105.46L104.034 78.7641L97.8653 71.8439L67.9158 98.5399L74.0842 105.46ZM99.1677 78.9936L108.657 86.2491L114.288 78.8848L104.798 71.6293L99.1677 78.9936ZM115.895 85.7534L132.022 69.4901L125.44 62.9626L109.312 79.226L115.895 85.7534ZM127.373 70.0547L139.477 77.4436L144.308 69.5311L132.203 62.1422L127.373 70.0547ZM146.35 76.5098L205.101 13.7626L198.334 7.42656L139.583 70.1738L146.35 76.5098ZM139.477 77.4436C141.697 78.7987 144.569 78.4129 146.35 76.5098L139.583 70.1738C140.81 68.8641 142.782 68.6001 144.308 69.5311L139.477 77.4436ZM132.022 69.4901C130.788 70.7348 128.864 70.9648 127.373 70.0547L132.203 62.1422C130.034 60.8176 127.234 61.1536 125.44 62.9626L132.022 69.4901ZM108.657 86.2491C110.85 87.9255 113.949 87.7157 115.895 85.7535L109.313 79.2259C110.651 77.876 112.781 77.7325 114.288 78.8848L108.657 86.2491ZM103.711 79.0265C102.359 80.0299 100.506 80.0168 99.1677 78.9936L104.798 71.6293C102.852 70.1412 100.155 70.1219 98.1877 71.5815L103.711 79.0265ZM186.09 16.7147L205.969 9.42754L202.778 0.723667L182.899 8.0108L186.09 16.7147ZM201.394 5.75633L198.481 27.8572L207.672 29.0684L210.585 6.96748L201.394 5.75633ZM205.969 9.42754C203.583 10.3021 201.053 8.34667 201.394 5.75633L210.585 6.96748C211.163 2.58226 206.87 -0.776219 202.778 0.723666L205.969 9.42754Z" fill="url(#paint0_linear_279_457)"/>
</g>
<line x1="22.3975" y1="81.7961" x2="52.9423" y2="118.969" stroke="#0A2253" stroke-width="5.76318"/>
<circle cx="22.6205" cy="81.463" r="10.2296" fill="#0A2253"/>
<g filter="url(#filter1_i_279_457)">
<path d="M10.9226 92.7017C8.02573 89.6034 6.47829 85.4813 6.62068 81.2422C6.76308 77.003 8.58364 72.994 11.6819 70.0972C14.7801 67.2003 18.9022 65.6529 23.1414 65.7953C27.3805 65.9377 31.3895 67.7582 34.2864 70.8564" stroke="#0FC4BF" stroke-width="2.59343" stroke-linecap="round"/>
</g>
<g filter="url(#filter2_i_279_457)">
<circle cx="22.6204" cy="81.4624" r="7.92437" fill="url(#paint1_linear_279_457)"/>
</g>
<circle cx="53.0213" cy="117.626" r="19.5948" fill="#0A2253"/>
<g filter="url(#filter3_i_279_457)">
<circle cx="53.1653" cy="118.059" r="18.2981" fill="url(#paint2_linear_279_457)"/>
</g>
<g filter="url(#filter4_d_279_457)">
<circle cx="53.1652" cy="118.06" r="9.5587" fill="url(#paint3_linear_279_457)"/>
</g>
<path d="M88.4818 114.948L86.2371 117.193C85.325 116.29 84.4971 115.838 83.7533 115.838C83.346 115.838 83.0272 115.927 82.797 116.104C82.5668 116.272 82.4516 116.484 82.4516 116.741C82.4516 116.936 82.5225 117.118 82.6642 117.286C82.8147 117.445 83.1777 117.667 83.7533 117.95L85.0815 118.614C86.4806 119.305 87.4414 120.009 87.9638 120.726C88.4862 121.443 88.7475 122.284 88.7475 123.25C88.7475 124.534 88.2737 125.605 87.3262 126.464C86.3876 127.323 85.1258 127.752 83.5408 127.752C81.4333 127.752 79.7509 126.929 78.4935 125.282L80.7249 122.851C81.15 123.347 81.6458 123.75 82.2126 124.06C82.7881 124.361 83.2973 124.511 83.74 124.511C84.2182 124.511 84.6034 124.396 84.8956 124.166C85.1878 123.936 85.3339 123.67 85.3339 123.369C85.3339 122.811 84.807 122.267 83.7533 121.735L82.5313 121.124C80.1936 119.947 79.0248 118.472 79.0248 116.701C79.0248 115.559 79.4631 114.585 80.3397 113.779C81.2252 112.965 82.3542 112.557 83.7267 112.557C84.6654 112.557 85.5464 112.765 86.3699 113.182C87.2023 113.589 87.9062 114.178 88.4818 114.948ZM91.5899 112.929H95.2292V114.589C95.8491 113.908 96.5353 113.399 97.288 113.062C98.0495 112.726 98.8774 112.557 99.7718 112.557C100.675 112.557 101.49 112.779 102.216 113.221C102.942 113.664 103.526 114.311 103.969 115.161C104.545 114.311 105.249 113.664 106.081 113.221C106.922 112.779 107.839 112.557 108.83 112.557C109.857 112.557 110.761 112.796 111.54 113.275C112.319 113.753 112.877 114.377 113.213 115.147C113.559 115.918 113.731 117.171 113.731 118.906V127.38H110.079V120.049C110.079 118.41 109.875 117.304 109.468 116.728C109.061 116.144 108.45 115.851 107.635 115.851C107.015 115.851 106.457 116.028 105.961 116.383C105.474 116.737 105.111 117.228 104.872 117.857C104.633 118.477 104.514 119.477 104.514 120.859V127.38H100.861V120.381C100.861 119.088 100.764 118.154 100.569 117.578C100.383 116.994 100.099 116.56 99.7187 116.276C99.3379 115.993 98.8774 115.851 98.3373 115.851C97.7352 115.851 97.1862 116.033 96.6903 116.396C96.2033 116.75 95.8358 117.25 95.5878 117.897C95.3488 118.543 95.2292 119.562 95.2292 120.952V127.38H91.5899V112.929ZM127.877 112.929H131.49V127.38H127.877V125.853C127.169 126.526 126.456 127.013 125.739 127.314C125.03 127.606 124.26 127.752 123.428 127.752C121.559 127.752 119.943 127.031 118.58 125.587C117.216 124.135 116.534 122.333 116.534 120.181C116.534 117.95 117.194 116.121 118.513 114.696C119.833 113.27 121.435 112.557 123.321 112.557C124.189 112.557 125.004 112.721 125.765 113.049C126.527 113.376 127.231 113.868 127.877 114.523V112.929ZM124.065 115.904C122.941 115.904 122.006 116.303 121.263 117.1C120.519 117.888 120.147 118.902 120.147 120.142C120.147 121.39 120.523 122.417 121.276 123.223C122.037 124.029 122.972 124.432 124.078 124.432C125.221 124.432 126.168 124.038 126.921 123.25C127.674 122.453 128.05 121.412 128.05 120.128C128.05 118.871 127.674 117.853 126.921 117.073C126.168 116.294 125.216 115.904 124.065 115.904ZM134.306 112.929H137.414V114.749C137.75 114.032 138.198 113.487 138.755 113.115C139.313 112.743 139.924 112.557 140.588 112.557C141.058 112.557 141.549 112.681 142.063 112.929L140.934 116.051C140.509 115.838 140.159 115.732 139.884 115.732C139.327 115.732 138.853 116.077 138.463 116.768C138.082 117.458 137.892 118.813 137.892 120.832L137.905 121.536V127.38H134.306V112.929ZM144.307 107.603H147.92V112.929H150.072V116.051H147.92V127.38H144.307V116.051H142.448V112.929H144.307V107.603ZM170.327 112.929H173.94V125.308C173.94 127.752 173.449 129.55 172.466 130.701C171.147 132.259 169.159 133.039 166.502 133.039C165.085 133.039 163.894 132.862 162.929 132.507C161.964 132.153 161.149 131.631 160.485 130.94C159.821 130.258 159.33 129.426 159.011 128.443H163.009C163.363 128.85 163.819 129.156 164.377 129.359C164.935 129.572 165.595 129.678 166.356 129.678C167.33 129.678 168.114 129.528 168.707 129.227C169.3 128.926 169.716 128.536 169.956 128.058C170.203 127.58 170.327 126.756 170.327 125.587C169.69 126.225 169.021 126.685 168.322 126.969C167.622 127.243 166.83 127.38 165.944 127.38C164.005 127.38 162.367 126.681 161.03 125.282C159.693 123.883 159.024 122.112 159.024 119.969C159.024 117.675 159.733 115.834 161.149 114.443C162.433 113.186 163.965 112.557 165.745 112.557C166.577 112.557 167.361 112.712 168.096 113.022C168.84 113.323 169.584 113.824 170.327 114.523V112.929ZM166.569 115.944C165.426 115.944 164.483 116.329 163.739 117.1C162.996 117.861 162.624 118.822 162.624 119.982C162.624 121.186 163.004 122.174 163.766 122.944C164.528 123.714 165.484 124.1 166.635 124.1C167.76 124.1 168.685 123.723 169.411 122.971C170.146 122.218 170.513 121.231 170.513 120.009C170.513 118.804 170.146 117.826 169.411 117.073C168.676 116.321 167.729 115.944 166.569 115.944ZM188.285 112.929H191.898V127.38H188.285V125.853C187.577 126.526 186.864 127.013 186.147 127.314C185.438 127.606 184.668 127.752 183.836 127.752C181.967 127.752 180.351 127.031 178.988 125.587C177.624 124.135 176.942 122.333 176.942 120.181C176.942 117.95 177.602 116.121 178.921 114.696C180.24 113.27 181.843 112.557 183.729 112.557C184.597 112.557 185.412 112.721 186.173 113.049C186.935 113.376 187.639 113.868 188.285 114.523V112.929ZM184.473 115.904C183.349 115.904 182.414 116.303 181.671 117.1C180.927 117.888 180.555 118.902 180.555 120.142C180.555 121.39 180.931 122.417 181.684 123.223C182.445 124.029 183.38 124.432 184.486 124.432C185.629 124.432 186.576 124.038 187.329 123.25C188.081 122.453 188.458 121.412 188.458 120.128C188.458 118.871 188.081 117.853 187.329 117.073C186.576 116.294 185.624 115.904 184.473 115.904ZM199.163 112.929V114.523C199.819 113.868 200.527 113.376 201.289 113.049C202.05 112.721 202.865 112.557 203.732 112.557C205.619 112.557 207.221 113.27 208.541 114.696C209.86 116.121 210.52 117.95 210.52 120.181C210.52 122.333 209.838 124.135 208.474 125.587C207.111 127.031 205.495 127.752 203.626 127.752C202.794 127.752 202.019 127.606 201.302 127.314C200.585 127.013 199.872 126.526 199.163 125.853V132.667H195.564V112.929H199.163ZM202.975 115.904C201.833 115.904 200.886 116.294 200.133 117.073C199.38 117.853 199.004 118.871 199.004 120.128C199.004 121.412 199.38 122.453 200.133 123.25C200.886 124.038 201.833 124.432 202.975 124.432C204.082 124.432 205.012 124.029 205.765 123.223C206.526 122.417 206.907 121.39 206.907 120.142C206.907 118.902 206.535 117.888 205.791 117.1C205.047 116.303 204.109 115.904 202.975 115.904Z" fill="#231550"/>
<g filter="url(#filter5_i_279_457)">
<circle cx="14.6961" cy="95.1925" r="1.44079" fill="#0FC2BF"/>
</g>
<g filter="url(#filter6_i_279_457)">
<circle cx="19.3067" cy="96.9222" r="1.44079" fill="#0FC2BF"/>
</g>
<g filter="url(#filter7_i_279_457)">
<circle cx="24.2053" cy="96.9222" r="1.44079" fill="#0FC2BF"/>
</g>
<defs>
<filter id="filter0_i_279_457" x="67.9158" y="0.0617993" width="142.721" height="105.398" filterUnits="userSpaceOnUse" color-interpolation-filters="sRGB">
<feFlood flood-opacity="0" result="BackgroundImageFix"/>
<feBlend mode="normal" in="SourceGraphic" in2="BackgroundImageFix" result="shape"/>
<feColorMatrix in="SourceAlpha" type="matrix" values="0 0 0 0 0 0 0 0 0 0 0 0 0 0 0 0 0 0 127 0" result="hardAlpha"/>
<feOffset dy="-2.39232"/>
<feGaussianBlur stdDeviation="0.14952"/>
<feComposite in2="hardAlpha" operator="arithmetic" k2="-1" k3="1"/>
<feColorMatrix type="matrix" values="0 0 0 0 0.0392157 0 0 0 0 0.133333 0 0 0 0 0.32549 0 0 0 1 0"/>
<feBlend mode="normal" in2="shape" result="effect1_innerShadow_279_457"/>
</filter>
<filter id="filter1_i_279_457" x="5.31494" y="64.2013" width="30.2681" height="29.7969" filterUnits="userSpaceOnUse" color-interpolation-filters="sRGB">
<feFlood flood-opacity="0" result="BackgroundImageFix"/>
<feBlend mode="normal" in="SourceGraphic" in2="BackgroundImageFix" result="shape"/>
<feColorMatrix in="SourceAlpha" type="matrix" values="0 0 0 0 0 0 0 0 0 0 0 0 0 0 0 0 0 0 127 0" result="hardAlpha"/>
<feOffset dy="-0.288159"/>
<feGaussianBlur stdDeviation="0.576318"/>
<feComposite in2="hardAlpha" operator="arithmetic" k2="-1" k3="1"/>
<feColorMatrix type="matrix" values="0 0 0 0 0.129412 0 0 0 0 0.0901961 0 0 0 0 0.27451 0 0 0 1 0"/>
<feBlend mode="normal" in2="shape" result="effect1_innerShadow_279_457"/>
</filter>
<filter id="filter2_i_279_457" x="14.696" y="73.065" width="15.8487" height="16.3217" filterUnits="userSpaceOnUse" color-interpolation-filters="sRGB">
<feFlood flood-opacity="0" result="BackgroundImageFix"/>
<feBlend mode="normal" in="SourceGraphic" in2="BackgroundImageFix" result="shape"/>
<feColorMatrix in="SourceAlpha" type="matrix" values="0 0 0 0 0 0 0 0 0 0 0 0 0 0 0 0 0 0 127 0" result="hardAlpha"/>
<feOffset dy="-0.946193"/>
<feGaussianBlur stdDeviation="0.236548"/>
<feComposite in2="hardAlpha" operator="arithmetic" k2="-1" k3="1"/>
<feColorMatrix type="matrix" values="0 0 0 0 0.129412 0 0 0 0 0.0901961 0 0 0 0 0.27451 0 0 0 1 0"/>
<feBlend mode="normal" in2="shape" result="effect1_innerShadow_279_457"/>
</filter>
<filter id="filter3_i_279_457" x="34.8672" y="98.6686" width="36.5962" height="37.6886" filterUnits="userSpaceOnUse" color-interpolation-filters="sRGB">
<feFlood flood-opacity="0" result="BackgroundImageFix"/>
<feBlend mode="normal" in="SourceGraphic" in2="BackgroundImageFix" result="shape"/>
<feColorMatrix in="SourceAlpha" type="matrix" values="0 0 0 0 0 0 0 0 0 0 0 0 0 0 0 0 0 0 127 0" result="hardAlpha"/>
<feOffset dy="-2.18485"/>
<feGaussianBlur stdDeviation="0.546211"/>
<feComposite in2="hardAlpha" operator="arithmetic" k2="-1" k3="1"/>
<feColorMatrix type="matrix" values="0 0 0 0 0.129412 0 0 0 0 0.0901961 0 0 0 0 0.27451 0 0 0 1 0"/>
<feBlend mode="normal" in2="shape" result="effect1_innerShadow_279_457"/>
</filter>
<filter id="filter4_d_279_457" x="42.4539" y="108.501" width="21.4227" height="21.4227" filterUnits="userSpaceOnUse" color-interpolation-filters="sRGB">
<feFlood flood-opacity="0" result="BackgroundImageFix"/>
<feColorMatrix in="SourceAlpha" type="matrix" values="0 0 0 0 0 0 0 0 0 0 0 0 0 0 0 0 0 0 127 0" result="hardAlpha"/>
<feOffset dy="1.15264"/>
<feGaussianBlur stdDeviation="0.576318"/>
<feComposite in2="hardAlpha" operator="out"/>
<feColorMatrix type="matrix" values="0 0 0 0 0 0 0 0 0 0 0 0 0 0 0 0 0 0 0.25 0"/>
<feBlend mode="normal" in2="BackgroundImageFix" result="effect1_dropShadow_279_457"/>
<feBlend mode="normal" in="SourceGraphic" in2="effect1_dropShadow_279_457" result="shape"/>
</filter>
<filter id="filter5_i_279_457" x="13.2553" y="93.4636" width="2.88158" height="3.16975" filterUnits="userSpaceOnUse" color-interpolation-filters="sRGB">
<feFlood flood-opacity="0" result="BackgroundImageFix"/>
<feBlend mode="normal" in="SourceGraphic" in2="BackgroundImageFix" result="shape"/>
<feColorMatrix in="SourceAlpha" type="matrix" values="0 0 0 0 0 0 0 0 0 0 0 0 0 0 0 0 0 0 127 0" result="hardAlpha"/>
<feOffset dy="-0.288159"/>
<feGaussianBlur stdDeviation="0.576318"/>
<feComposite in2="hardAlpha" operator="arithmetic" k2="-1" k3="1"/>
<feColorMatrix type="matrix" values="0 0 0 0 0.0392157 0 0 0 0 0.133333 0 0 0 0 0.32549 0 0 0 1 0"/>
<feBlend mode="normal" in2="shape" result="effect1_innerShadow_279_457"/>
</filter>
<filter id="filter6_i_279_457" x="17.8659" y="95.1933" width="2.88158" height="3.16975" filterUnits="userSpaceOnUse" color-interpolation-filters="sRGB">
<feFlood flood-opacity="0" result="BackgroundImageFix"/>
<feBlend mode="normal" in="SourceGraphic" in2="BackgroundImageFix" result="shape"/>
<feColorMatrix in="SourceAlpha" type="matrix" values="0 0 0 0 0 0 0 0 0 0 0 0 0 0 0 0 0 0 127 0" result="hardAlpha"/>
<feOffset dy="-0.288159"/>
<feGaussianBlur stdDeviation="0.576318"/>
<feComposite in2="hardAlpha" operator="arithmetic" k2="-1" k3="1"/>
<feColorMatrix type="matrix" values="0 0 0 0 0.0392157 0 0 0 0 0.133333 0 0 0 0 0.32549 0 0 0 1 0"/>
<feBlend mode="normal" in2="shape" result="effect1_innerShadow_279_457"/>
</filter>
<filter id="filter7_i_279_457" x="22.7645" y="95.1933" width="2.88158" height="3.16975" filterUnits="userSpaceOnUse" color-interpolation-filters="sRGB">
<feFlood flood-opacity="0" result="BackgroundImageFix"/>
<feBlend mode="normal" in="SourceGraphic" in2="BackgroundImageFix" result="shape"/>
<feColorMatrix in="SourceAlpha" type="matrix" values="0 0 0 0 0 0 0 0 0 0 0 0 0 0 0 0 0 0 127 0" result="hardAlpha"/>
<feOffset dy="-0.288159"/>
<feGaussianBlur stdDeviation="0.576318"/>
<feComposite in2="hardAlpha" operator="arithmetic" k2="-1" k3="1"/>
<feColorMatrix type="matrix" values="0 0 0 0 0.0392157 0 0 0 0 0.133333 0 0 0 0 0.32549 0 0 0 1 0"/>
<feBlend mode="normal" in2="shape" result="effect1_innerShadow_279_457"/>
</filter>
<linearGradient id="paint0_linear_279_457" x1="202.146" y1="2.80637" x2="190.958" y2="128.233" gradientUnits="userSpaceOnUse">
<stop stop-color="#0FC4BF"/>
<stop offset="1" stop-color="#0273AF"/>
</linearGradient>
<linearGradient id="paint1_linear_279_457" x1="19.9001" y1="74.1295" x2="24.0397" y2="88.6772" gradientUnits="userSpaceOnUse">
<stop stop-color="#D15A97"/>
<stop offset="1" stop-color="#91229A"/>
</linearGradient>
<linearGradient id="paint2_linear_279_457" x1="46.8838" y1="101.127" x2="56.4425" y2="134.719" gradientUnits="userSpaceOnUse">
<stop stop-color="#D15A97"/>
<stop offset="1" stop-color="#91229A"/>
</linearGradient>
<linearGradient id="paint3_linear_279_457" x1="57.808" y1="131.169" x2="50.161" y2="108.501" gradientUnits="userSpaceOnUse">
<stop stop-color="#351568"/>
<stop offset="1" stop-color="#692ACE"/>
</linearGradient>
</defs>
</svg>
